<svg width="30" height="31" viewBox="0 0 30 31" fill="none" xmlns="http://www.w3.org/2000/svg">
<g clip-path="url(#clip0)">
<path d="M19.6231 8.33374L12.9446 1.24803C11.5133 -0.270501 9.19502 -0.270501 7.76369 1.24803L1.08518 8.33374C-1.22685 10.7868 0.408172 14.9853 3.67564 14.9853H4.58371L4.5837 30.4141H16.1246L16.1246 14.9853H17.0327C20.3001 14.9853 21.9353 10.7868 19.6231 8.33374Z" fill="#D8D8D8"/>
<path d="M5.40939 8.33507C3.09771 10.7884 4.73306 14.9865 7.99975 14.9865H8.90871V30.4154H4.58155V14.9866H3.67392C0.405897 14.9866 -1.22946 10.7885 1.08357 8.33519L7.76175 1.24971C9.05899 -0.125642 11.0825 -0.255046 12.5164 0.861621C12.3662 0.976659 12.2242 1.10594 12.089 1.24971L5.40939 8.33507Z" fill="#CDCDCD"/>
<path d="M25.8677 11.889C25.8677 13.4774 25.3316 14.8524 24.274 15.9763C23.2164 17.1 21.9221 17.6696 20.4271 17.6696H20.4245C18.9314 17.6691 17.6381 17.0994 16.5804 15.9763C15.5227 14.8524 14.9867 13.4774 14.9867 11.889C14.9867 10.3011 15.5227 8.92596 16.5804 7.80225C17.6375 6.67889 18.9309 6.10944 20.4245 6.10889H20.4271C21.9216 6.10889 23.2158 6.67853 24.274 7.80225C25.3316 8.92596 25.8677 10.3011 25.8677 11.889Z" fill="#FFDB2D"/>
<path d="M29.9926 25.9814C29.9926 27.2346 29.6174 28.2492 28.8785 28.9965C28.1481 29.7349 27.1822 30.109 26.0077 30.109H15.1313C13.9569 30.109 12.991 29.7349 12.2611 28.9965C11.5216 28.2487 11.147 27.2343 11.147 25.9814C11.147 25.4995 11.162 25.0227 11.192 24.5642C11.2225 24.0955 11.2842 23.5853 11.3751 23.0472C11.4668 22.5046 11.5847 21.9918 11.7258 21.523C11.8723 21.0378 12.0705 20.5591 12.3157 20.1006C12.5705 19.6248 12.8696 19.2102 13.205 18.8689C13.5566 18.5117 13.9864 18.2247 14.4832 18.0156C14.9783 17.8076 15.5272 17.7021 16.1145 17.7021C16.3449 17.7021 16.5681 17.8023 16.9982 18.1C17.2674 18.2866 17.5776 18.499 17.9201 18.7316C18.2158 18.9319 18.6163 19.1198 19.1114 19.2895C19.5466 19.4391 19.9883 19.5226 20.4246 19.537C20.4727 19.5389 20.5208 19.5398 20.5688 19.5398C21.0535 19.5398 21.5436 19.4554 22.0268 19.2895C22.5219 19.1198 22.9229 18.9319 23.2185 18.7316C23.5645 18.4966 23.8747 18.2844 24.14 18.1006C24.5705 17.8023 24.7933 17.7021 25.0242 17.7021C25.611 17.7021 26.1599 17.8076 26.6554 18.0156C27.1522 18.2247 27.582 18.5122 27.9332 18.8689C28.2691 19.2102 28.5683 19.6248 28.8228 20.1006C29.0682 20.5595 29.2667 21.0378 29.4127 21.5225C29.554 21.9918 29.6722 22.5046 29.7639 23.0475C29.8544 23.5862 29.9163 24.0964 29.9466 24.5638C29.9771 25.0209 29.9921 25.4977 29.9926 25.9814Z" fill="#E2E2E2"/>
<path d="M20.427 17.6696H20.4244V6.10889H20.427C21.9215 6.10889 23.2157 6.67853 24.2739 7.80225C25.3315 8.92596 25.8676 10.3011 25.8676 11.889C25.8676 13.4774 25.3315 14.8524 24.2739 15.9763C23.2163 17.1 21.922 17.6696 20.427 17.6696Z" fill="#FFCA00"/>
<path d="M29.9925 25.9814C29.9925 27.2346 29.6173 28.2492 28.8783 28.9965C28.148 29.7349 27.182 30.109 26.0076 30.109H20.4244V19.537C20.4725 19.5389 20.5206 19.5398 20.5687 19.5398C21.0533 19.5398 21.5434 19.4554 22.0266 19.2895C22.5218 19.1198 22.9228 18.9319 23.2183 18.7316C23.5644 18.4966 23.8746 18.2844 24.1398 18.1006C24.5703 17.8023 24.7931 17.7021 25.024 17.7021C25.6108 17.7021 26.1597 17.8076 26.6552 18.0156C27.152 18.2247 27.5818 18.5122 27.9331 18.8689C28.2689 19.2102 28.5681 19.6248 28.8226 20.1006C29.0681 20.5595 29.2666 21.0378 29.4125 21.5225C29.5539 21.9918 29.6721 22.5046 29.7638 23.0475C29.8542 23.5862 29.9161 24.0964 29.9464 24.5638C29.9769 25.0209 29.9919 25.4977 29.9925 25.9814Z" fill="#D8D8D8"/>
</g>
<defs>
<clipPath id="clip0">
<rect width="30" height="30" fill="white" transform="translate(0 0.109131)"/>
</clipPath>
</defs>
</svg>
