<svg width="232" height="232" viewBox="0 0 232 232" fill="none" xmlns="http://www.w3.org/2000/svg">
<g clip-path="url(#clip0)">
<path d="M231.313 225.433L225.528 202.291C222.783 191.064 214.461 182.035 203.495 178.387L161.067 164.251C150.721 159.941 145.987 143.278 144.964 136.953C152.848 130.397 157.921 121.07 159.139 110.889C158.965 109.15 159.375 107.403 160.305 105.923C161.809 105.546 163.039 104.47 163.612 103.03C166.389 96.3081 168.131 89.2046 168.781 81.9614C168.782 81.5677 168.734 81.1758 168.636 80.7948C167.946 77.9802 166.291 75.4965 163.96 73.7749V48.2124C163.96 32.6782 159.215 26.3047 154.221 22.6114C153.267 15.1291 145.254 0 115.748 0C89.5696 1.05405 68.5889 22.0347 67.5349 48.2128V73.7753C65.2035 75.497 63.5487 77.9807 62.8581 80.7952C62.7605 81.1763 62.7121 81.5686 62.7135 81.9618C63.3625 89.2086 65.105 96.3153 67.882 103.041C68.2997 104.403 69.3948 105.451 70.7748 105.808C71.3149 106.078 72.3274 107.476 72.3274 110.89C73.5527 121.1 78.6548 130.448 86.5792 137.002C85.5667 143.318 80.861 159.971 70.8042 164.174L28.0008 178.387C17.0431 182.035 8.72643 191.055 5.9774 202.272L0.191881 225.414C-0.463058 227.995 1.09813 230.618 3.67901 231.273C4.06456 231.372 4.46096 231.421 4.85872 231.422H226.637C229.3 231.421 231.458 229.262 231.457 226.599C231.457 226.205 231.408 225.814 231.313 225.433Z" fill="#6F92BB"/>
</g>
<defs>
<clipPath id="clip0">
<rect width="231.421" height="231.421" fill="white" transform="translate(0.0383301)"/>
</clipPath>
</defs>
</svg>
