<svg width="30" height="31" viewBox="0 0 30 31" fill="none" xmlns="http://www.w3.org/2000/svg">
<path d="M24.8049 5.61865H26.1563C26.5544 5.61865 26.877 5.94136 26.877 6.33937V8.65049H24.0841V6.33831C24.0847 5.94073 24.4072 5.61865 24.8049 5.61865Z" fill="#575B6D"/>
<path d="M19.1638 4.68799H10.8362C10.4366 4.68792 10.0695 4.9084 9.88176 5.26127L8.07812 8.65052H21.922L20.118 5.25979C19.9299 4.9077 19.563 4.68785 19.1638 4.68799Z" fill="#DBD8DD"/>
<path d="M1.80182 7.60815H28.1982C29.1933 7.60815 30 8.41485 30 9.40997V24.2746C30 25.2697 29.1933 26.0764 28.1982 26.0764H1.80182C0.806697 26.0765 0 25.2698 0 24.2747V9.40997C0 8.41485 0.806697 7.60815 1.80182 7.60815Z" fill="#DBD8DD"/>
<path d="M0 11.9478H30V21.7377H0V11.9478Z" fill="#575B6D"/>
<path d="M14.9999 24.1924C19.0592 24.1924 22.3498 20.9017 22.3498 16.8424C22.3498 12.7831 19.0592 9.49243 14.9999 9.49243C10.9406 9.49243 7.6499 12.7831 7.6499 16.8424C7.6499 20.9017 10.9406 24.1924 14.9999 24.1924Z" fill="#686D82"/>
<path d="M20.5477 16.8429C20.5537 19.9142 18.0688 22.4088 14.9975 22.4147C11.9262 22.4206 9.4317 19.9357 9.42579 16.8645C9.41982 13.7932 11.9047 11.2986 14.976 11.2927C16.106 11.2906 17.2097 11.6326 18.1404 12.2734C19.6454 13.3081 20.5454 15.0166 20.5477 16.8429Z" fill="#419BE9"/>
<path d="M19.1102 15.4053C19.1146 18.4658 16.6371 20.9504 13.5766 20.9549C12.4499 20.9565 11.3494 20.6146 10.4219 19.9748C8.68846 17.4507 9.32937 13.9994 11.8535 12.266C13.748 10.9649 16.249 10.9675 18.1407 12.2728C18.7728 13.1951 19.1107 14.2872 19.1102 15.4053Z" fill="#69B0EE"/>
<path d="M14.2809 15.0484C14.8946 15.0484 15.392 14.5509 15.392 13.9373C15.392 13.3236 14.8946 12.8262 14.2809 12.8262C13.6673 12.8262 13.1698 13.3236 13.1698 13.9373C13.1698 14.5509 13.6673 15.0484 14.2809 15.0484Z" fill="#EEEFEE"/>
<path d="M12.4474 16.6194C12.721 16.6194 12.9428 16.3976 12.9428 16.124C12.9428 15.8505 12.721 15.6287 12.4474 15.6287C12.1738 15.6287 11.952 15.8505 11.952 16.124C11.952 16.3976 12.1738 16.6194 12.4474 16.6194Z" fill="#EEEFEE"/>
<path d="M3.83696 10.9593C4.35786 10.9593 4.78013 10.537 4.78013 10.0162C4.78013 9.49526 4.35786 9.073 3.83696 9.073C3.31607 9.073 2.8938 9.49526 2.8938 10.0162C2.8938 10.537 3.31607 10.9593 3.83696 10.9593Z" fill="#EF5261"/>
<path d="M22.9215 17.4136C22.9235 18.9681 22.4302 20.4829 21.513 21.738H20.4813C22.974 18.9506 22.974 14.7352 20.4813 11.9478C22.0363 13.3388 22.924 15.3272 22.9215 17.4136Z" fill="#464956"/>
<path d="M21.5122 21.7381C19.1259 25.0194 14.5314 25.745 11.2501 23.3586C10.8258 23.05 10.4357 22.6969 10.0865 22.3051C13.0985 25.0195 17.7407 24.7783 20.4551 21.7663C20.4636 21.7569 20.472 21.7475 20.4805 21.738H21.5122V21.7381Z" fill="#BBBBCD"/>
</svg>
