<svg width="30" height="31" viewBox="0 0 30 31" fill="none" xmlns="http://www.w3.org/2000/svg">
<g clip-path="url(#clip0)">
<path d="M25.6539 3.71715V30.2161C25.6539 30.5493 25.3835 30.8198 25.0503 30.8198H4.94969C4.61649 30.8198 4.34607 30.5493 4.34607 30.2161V3.71715C4.34607 3.38395 4.61649 3.11353 4.94969 3.11353H25.0503C25.3835 3.11353 25.6539 3.38395 25.6539 3.71715Z" fill="#FAD207"/>
<path d="M5.31201 6.09221V29.4264C5.31201 29.6625 5.50336 29.8538 5.73944 29.8538H17.9191C18.0792 29.8538 18.2328 29.7902 18.346 29.677L22.9981 25.0249V5.76934H6.51479L6.41302 5.03467L5.58062 5.59012C5.41276 5.70209 5.31201 5.89048 5.31201 6.09221Z" fill="#FAA515"/>
<path d="M23.843 5.52794V24.1798L20.2212 25.5078L19.014 29.0088H6.76048C6.4271 29.0088 6.15686 28.7386 6.15686 28.4052V5.52794C6.15686 5.19456 6.4271 4.92432 6.76048 4.92432H23.2394C23.5727 4.92432 23.843 5.19456 23.843 5.52794Z" fill="#F5F5F5"/>
<path d="M23.8431 24.1797L19.0142 29.0086V24.7833C19.0142 24.4499 19.2844 24.1797 19.6178 24.1797H23.8431Z" fill="#E6E6E6"/>
<path d="M21.0747 4.92432V6.09715C21.0747 6.92894 20.3975 7.60621 19.5657 7.60621H10.4341C9.60231 7.60621 8.92505 6.92894 8.92505 6.09715V4.92432H21.0747Z" fill="#E6E6E6"/>
<path d="M8.92505 3.11353H21.0747V4.92439H8.92505V3.11353Z" fill="#FAA515"/>
<path d="M20.1694 3.11206V6.09679C20.1694 6.43017 19.8991 6.70041 19.5658 6.70041H10.4344C10.1011 6.70041 9.83081 6.43017 9.83081 6.09679V3.11206L13.1813 3.11212C13.1368 2.92072 13.1216 2.71802 13.1409 2.50905C13.2244 1.60693 13.9638 0.886511 14.8676 0.824157C15.9588 0.748886 16.8674 1.61182 16.8674 2.68693C16.8674 2.83319 16.8506 2.97559 16.8187 3.11212L20.1694 3.11206Z" fill="#50758D"/>
<path d="M10.3758 12.7773C10.259 12.7773 10.1465 12.7322 10.062 12.6509L8.53262 11.1804C8.35238 11.0071 8.34676 10.7205 8.52006 10.5403C8.69336 10.3601 8.98002 10.3545 9.16014 10.5277L10.3486 11.6706L12.2124 9.55483C12.3776 9.36729 12.6637 9.34906 12.8514 9.51439C13.039 9.67966 13.0571 9.96577 12.8919 10.1534L10.7154 12.6239C10.6338 12.7166 10.5179 12.7719 10.3945 12.7769C10.3883 12.7772 10.382 12.7773 10.3758 12.7773Z" fill="#5ED297"/>
<path d="M20.7645 11.5417H14.3662C14.1161 11.5417 13.9135 11.339 13.9135 11.0889C13.9135 10.8389 14.1161 10.6362 14.3662 10.6362H20.7645C21.0146 10.6362 21.2173 10.8389 21.2173 11.0889C21.2173 11.339 21.0146 11.5417 20.7645 11.5417Z" fill="#50758D"/>
<path d="M10.3758 18.1028C10.259 18.1028 10.1465 18.0576 10.062 17.9764L8.53262 16.5058C8.35238 16.3325 8.34676 16.0459 8.52006 15.8658C8.69336 15.6855 8.98002 15.6799 9.16015 15.8532L10.3493 16.9967L12.2163 14.8857C12.3819 14.6984 12.668 14.6809 12.8553 14.8466C13.0426 15.0122 13.0602 15.2983 12.8945 15.4856L10.7149 17.95C10.6332 18.0424 10.5173 18.0974 10.3941 18.1024C10.388 18.1027 10.3818 18.1028 10.3758 18.1028Z" fill="#5ED297"/>
<path d="M20.7645 16.8458H14.3662C14.1161 16.8458 13.9135 16.6432 13.9135 16.3931C13.9135 16.1431 14.1161 15.9404 14.3662 15.9404H20.7645C21.0146 15.9404 21.2173 16.1431 21.2173 16.3931C21.2173 16.6432 21.0146 16.8458 20.7645 16.8458Z" fill="#50758D"/>
<path d="M20.7645 22.3468H19.7082C19.4581 22.3468 19.2555 22.1442 19.2555 21.8941C19.2555 21.644 19.4581 21.4414 19.7082 21.4414H20.7645C21.0146 21.4414 21.2172 21.644 21.2172 21.8941C21.2172 22.1442 21.0146 22.3468 20.7645 22.3468Z" fill="#50758D"/>
<path d="M17.5955 22.3468H14.3662C14.1161 22.3468 13.9135 22.1442 13.9135 21.8941C13.9135 21.644 14.1161 21.4414 14.3662 21.4414H17.5955C17.8456 21.4414 18.0482 21.644 18.0482 21.8941C18.0482 22.1442 17.8456 22.3468 17.5955 22.3468Z" fill="#50758D"/>
<path d="M12.0121 23.7351H9.23543C8.98535 23.7351 8.78271 23.5325 8.78271 23.2824V20.5057C8.78271 20.2556 8.98535 20.053 9.23543 20.053H12.0121C12.2622 20.053 12.4648 20.2556 12.4648 20.5057V23.2824C12.4648 23.5324 12.2622 23.7351 12.0121 23.7351ZM9.68815 22.8297H11.5594V20.9584H9.68815V22.8297Z" fill="#FD646F"/>
</g>
<defs>
<clipPath id="clip0">
<rect width="30" height="30" fill="white" transform="translate(0 0.819336)"/>
</clipPath>
</defs>
</svg>
