<svg width="31" height="32" viewBox="0 0 31 32" fill="none" xmlns="http://www.w3.org/2000/svg">
<g clip-path="url(#clip0)">
<path d="M29.2101 11.7942H19.4734V2.05748C19.4734 1.28916 18.8506 0.666504 18.0824 0.666504H15.3005H12.5187C11.7505 0.666504 11.1277 1.28916 11.1277 2.05748V11.7942H1.39098C0.62278 11.7942 0 12.4168 0 13.1852V18.749C0 19.5172 0.62278 20.14 1.39098 20.14H11.1277V29.8767C11.1277 30.6449 11.7505 31.2677 12.5187 31.2677H15.3005H18.0824C18.8506 31.2677 19.4734 30.6449 19.4734 29.8767V20.1399H29.2101C29.9783 20.1399 30.6011 19.5171 30.6011 18.7489V13.1851C30.6011 12.4168 29.9783 11.7942 29.2101 11.7942Z" fill="#A4E276"/>
<path d="M12.5187 0.666504C11.7505 0.666504 11.1277 1.28916 11.1277 2.05748V11.7942H1.39098C0.62278 11.7942 0 12.4168 0 13.1852V18.749C0 19.5172 0.62278 20.14 1.39098 20.14H11.1277V29.8767C11.1277 30.6449 11.7505 31.2677 12.5187 31.2677H15.3005V0.666504H12.5187Z" fill="#64C37D"/>
</g>
<defs>
<clipPath id="clip0">
<rect width="30.6011" height="30.6011" fill="white" transform="translate(0 0.666504)"/>
</clipPath>
</defs>
</svg>
