<svg width="30" height="31" viewBox="0 0 30 31" fill="none" xmlns="http://www.w3.org/2000/svg">
<path fill-rule="evenodd" clip-rule="evenodd" d="M27.931 5.69482H28.9655C29.5361 5.69653 29.9983 6.15869 30 6.72931V26.3845C29.9983 26.9551 29.5361 27.4173 28.9655 27.419H17.5862C17.5862 28.8473 16.4283 30.0052 15 30.0052C13.5717 30.0052 12.4138 28.8473 12.4138 27.419H1.03448C0.463861 27.4173 0.00170421 26.9551 0 26.3845V6.72931C0.00170421 6.15869 0.463861 5.69653 1.03448 5.69482H27.931Z" fill="#CB8252"/>
<path fill-rule="evenodd" clip-rule="evenodd" d="M13.9656 5.69519V5.17794C13.9656 4.32095 13.2709 3.62622 12.4139 3.62622H2.58633C2.30067 3.62622 2.06909 3.8578 2.06909 4.14346V24.8331C2.06909 25.1188 2.30067 25.3504 2.58633 25.3504H13.4484C13.7341 25.3504 13.9656 25.1188 13.9656 24.8331V5.69519Z" fill="#ECF0F1"/>
<path fill-rule="evenodd" clip-rule="evenodd" d="M19.6552 3.62622H17.5863C16.7293 3.62622 16.0345 4.32095 16.0345 5.17794V24.8331C16.0345 25.1188 16.2661 25.3504 16.5518 25.3504H27.4139C27.6995 25.3504 27.9311 25.1188 27.9311 24.8331V4.14346C27.9311 3.8578 27.6995 3.62622 27.4139 3.62622H19.6552Z" fill="#ECF0F1"/>
<path d="M16.5517 5.69482H13.4483C12.877 5.69482 12.4138 6.15798 12.4138 6.7293C12.4138 7.30063 12.877 7.76378 13.4483 7.76378H16.5517C17.1231 7.76378 17.5862 7.30063 17.5862 6.7293C17.5862 6.15798 17.1231 5.69482 16.5517 5.69482Z" fill="#95A5A5"/>
<path d="M16.5517 10.8674H13.4483C12.877 10.8674 12.4138 11.3306 12.4138 11.9019C12.4138 12.4732 12.877 12.9364 13.4483 12.9364H16.5517C17.1231 12.9364 17.5862 12.4732 17.5862 11.9019C17.5862 11.3306 17.1231 10.8674 16.5517 10.8674Z" fill="#95A5A5"/>
<path d="M16.5517 16.0398H13.4483C12.877 16.0398 12.4138 16.503 12.4138 17.0743C12.4138 17.6456 12.877 18.1088 13.4483 18.1088H16.5517C17.1231 18.1088 17.5862 17.6456 17.5862 17.0743C17.5862 16.503 17.1231 16.0398 16.5517 16.0398Z" fill="#95A5A5"/>
<path d="M16.5517 21.2122H13.4483C12.877 21.2122 12.4138 21.6753 12.4138 22.2467C12.4138 22.818 12.877 23.2811 13.4483 23.2811H16.5517C17.1231 23.2811 17.5862 22.818 17.5862 22.2467C17.5862 21.6753 17.1231 21.2122 16.5517 21.2122Z" fill="#95A5A5"/>
<path d="M25.3449 2.5918H20.1725C19.8869 2.5918 19.6553 2.82337 19.6553 3.10904V5.178C19.6553 5.46367 19.8869 5.69525 20.1725 5.69525H25.3449C25.6306 5.69525 25.8622 5.46367 25.8622 5.178V3.10904C25.8622 2.82337 25.6306 2.5918 25.3449 2.5918Z" fill="#95A5A5"/>
<path fill-rule="evenodd" clip-rule="evenodd" d="M21.7241 0.00537109H23.793C24.3643 0.00537109 24.8275 0.468525 24.8275 1.03985V2.59158H20.6896V1.03985C20.6896 0.468525 21.1527 0.00537109 21.7241 0.00537109Z" fill="#FB7B76"/>
<path fill-rule="evenodd" clip-rule="evenodd" d="M24.088 19.1431L23.219 20.9275C23.1305 21.1003 22.9527 21.2089 22.7586 21.2089C22.5645 21.2089 22.3868 21.1003 22.2983 20.9275L21.4293 19.1431H24.088Z" fill="#35495E"/>
<path fill-rule="evenodd" clip-rule="evenodd" d="M25.3446 16.5571L24.0877 19.1433H21.4291L20.1722 16.5571H25.3446Z" fill="#FAC176"/>
<path fill-rule="evenodd" clip-rule="evenodd" d="M20.1722 5.69482H25.3446V16.5569H20.1722V5.69482Z" fill="#F0C419"/>
<path fill-rule="evenodd" clip-rule="evenodd" d="M23.2758 5.69482V7.76378C23.2758 8.04944 23.0442 8.28102 22.7586 8.28102C22.4729 8.28102 22.2413 8.04944 22.2413 7.76378V5.69482H23.2758Z" fill="#F29C1F"/>
<path fill-rule="evenodd" clip-rule="evenodd" d="M23.2758 9.83291V16.557H22.2413V9.83291C22.2413 9.54725 22.4729 9.31567 22.7586 9.31567C23.0442 9.31567 23.2758 9.54725 23.2758 9.83291Z" fill="#F29C1F"/>
<path fill-rule="evenodd" clip-rule="evenodd" d="M9.82796 7.24664H4.65555C4.36988 7.24664 4.13831 7.01506 4.13831 6.7294C4.13831 6.44373 4.36988 6.21216 4.65555 6.21216H9.82796C10.1136 6.21216 10.3452 6.44373 10.3452 6.7294C10.3452 7.01506 10.1136 7.24664 9.82796 7.24664Z" fill="#35495E"/>
<path fill-rule="evenodd" clip-rule="evenodd" d="M5.68978 10.3502H4.6553C4.36964 10.3502 4.13806 10.1186 4.13806 9.83292C4.13806 9.54725 4.36964 9.31567 4.6553 9.31567H5.68978C5.97544 9.31567 6.20702 9.54725 6.20702 9.83292C6.20702 10.1186 5.97544 10.3502 5.68978 10.3502Z" fill="#35495E"/>
<path fill-rule="evenodd" clip-rule="evenodd" d="M9.82791 10.3502H7.75894C7.47328 10.3502 7.2417 10.1186 7.2417 9.83292C7.2417 9.54725 7.47328 9.31567 7.75894 9.31567H9.82791C10.1136 9.31567 10.3451 9.54725 10.3451 9.83292C10.3451 10.1186 10.1136 10.3502 9.82791 10.3502Z" fill="#35495E"/>
<path fill-rule="evenodd" clip-rule="evenodd" d="M9.82772 13.4534H4.6553C4.36964 13.4534 4.13806 13.2219 4.13806 12.9362C4.13806 12.6505 4.36964 12.4189 4.6553 12.4189H9.82772C10.1134 12.4189 10.345 12.6505 10.345 12.9362C10.345 13.2219 10.1134 13.4534 9.82772 13.4534Z" fill="#35495E"/>
<path fill-rule="evenodd" clip-rule="evenodd" d="M9.82772 19.6602H4.6553C4.36964 19.6602 4.13806 19.4286 4.13806 19.143C4.13806 18.8573 4.36964 18.6257 4.6553 18.6257H9.82772C10.1134 18.6257 10.345 18.8573 10.345 19.143C10.345 19.4286 10.1134 19.6602 9.82772 19.6602Z" fill="#35495E"/>
<path fill-rule="evenodd" clip-rule="evenodd" d="M5.68978 16.5572H4.6553C4.36964 16.5572 4.13806 16.3256 4.13806 16.0399C4.13806 15.7543 4.36964 15.5227 4.6553 15.5227H5.68978C5.97544 15.5227 6.20702 15.7543 6.20702 16.0399C6.20702 16.3256 5.97544 16.5572 5.68978 16.5572Z" fill="#35495E"/>
<path fill-rule="evenodd" clip-rule="evenodd" d="M9.82791 16.5572H7.75894C7.47328 16.5572 7.2417 16.3256 7.2417 16.0399C7.2417 15.7543 7.47328 15.5227 7.75894 15.5227H9.82791C10.1136 15.5227 10.3451 15.7543 10.3451 16.0399C10.3451 16.3256 10.1136 16.5572 9.82791 16.5572Z" fill="#35495E"/>
</svg>
