<svg width="30" height="31" viewBox="0 0 30 31" fill="none" xmlns="http://www.w3.org/2000/svg">
<g clip-path="url(#clip0)">
<path d="M29.7553 17.7214L26.5462 14.8906L29.6418 11.9376C29.7556 11.8291 29.8024 11.6686 29.7648 11.5163C29.7272 11.3642 29.6108 11.2436 29.4595 11.1999L25.3394 10.0109L26.8622 6.02323C26.9181 5.87675 26.8912 5.71175 26.7916 5.59028C26.692 5.46888 26.5348 5.40952 26.3792 5.4346L22.1444 6.11733L21.8 1.86571C21.7874 1.7095 21.6918 1.57187 21.5495 1.50472C21.4072 1.43757 21.2395 1.45099 21.1098 1.53993L17.5786 3.96231L15.4336 0.26833C15.3548 0.132627 15.2092 0.0490723 15.0515 0.0490723C14.8939 0.0490723 14.7484 0.132627 14.6696 0.26833L12.2073 4.50864L7.9481 2.05046C7.81175 1.97177 7.64358 1.97142 7.507 2.0494C7.3703 2.12739 7.28593 2.272 7.28552 2.42868L7.27521 6.69401L2.99991 6.34163C2.84317 6.32874 2.69083 6.40005 2.60107 6.52878C2.51124 6.65751 2.4973 6.82415 2.56462 6.96583L4.39521 10.8233L0.380773 12.3281C0.233351 12.3833 0.126769 12.5127 0.101105 12.6673C0.0754406 12.8219 0.134796 12.9783 0.25673 13.0776L3.57425 15.7818L0.596925 18.8527C0.487589 18.9655 0.446984 19.1278 0.490519 19.2784C0.534112 19.429 0.655167 19.545 0.808038 19.5827L4.97142 20.6111L3.60648 24.6547C3.55632 24.8032 3.58972 24.9671 3.69402 25.0845C3.79837 25.202 3.9578 25.2552 4.1122 25.2241L8.31689 24.3778L8.82788 28.6129C8.84657 28.7684 8.94747 28.9022 9.09232 28.9639C9.23728 29.0255 9.40421 29.0056 9.5303 28.9117L12.9637 26.3542L15.252 29.8444C15.333 29.9721 15.4741 30.049 15.6251 30.049C15.6309 30.049 15.6366 30.0489 15.6424 30.0487C15.7998 30.0426 15.9421 29.9534 16.0155 29.8148L18.014 26.1582L21.6374 28.4418C21.7705 28.5258 21.9383 28.5327 22.0781 28.46C22.2177 28.3874 22.3077 28.2461 22.3142 28.0896L22.4918 23.8278L26.7501 24.3458C26.9062 24.3648 27.0612 24.2994 27.156 24.1743C27.2508 24.0491 27.2712 23.8831 27.2096 23.7389L25.5317 19.8133L29.6019 18.4655C29.7514 18.416 29.863 18.2909 29.8947 18.1374C29.9263 17.984 29.8732 17.8254 29.7553 17.7214Z" fill="#FFA600"/>
<path d="M14.9032 24.0514C19.9213 24.0514 23.9893 19.9866 23.9893 14.9724C23.9893 9.95814 19.9213 5.89331 14.9032 5.89331C9.88511 5.89331 5.81714 9.95814 5.81714 14.9724C5.81714 19.9866 9.88511 24.0514 14.9032 24.0514Z" fill="#FFDB2D"/>
<path d="M14.9034 5.89331C14.6758 5.89331 14.4504 5.90192 14.2271 5.91839C18.9292 6.26415 22.6367 10.1855 22.6367 14.9724C22.6367 19.7592 18.9292 23.6805 14.2271 24.0263C14.4504 24.0427 14.6759 24.0514 14.9034 24.0514C19.9214 24.0514 23.9894 19.9866 23.9894 14.9724C23.9894 9.95813 19.9214 5.89331 14.9034 5.89331Z" fill="#FFCA00"/>
</g>
<defs>
<clipPath id="clip0">
<rect width="30" height="30" fill="white" transform="translate(0 0.0490723)"/>
</clipPath>
</defs>
</svg>
