<svg width="30" height="31" viewBox="0 0 30 31" fill="none" xmlns="http://www.w3.org/2000/svg">
<g clip-path="url(#clip0)">
<path d="M22.012 7.85329C22.012 9.83884 21.3 11.5575 19.8953 12.9624C18.4907 14.367 16.7718 15.0791 14.7862 15.0791H14.7828C12.7998 15.0784 11.082 14.3663 9.67737 12.9624C8.27249 11.5575 7.56067 9.83884 7.56067 7.85329C7.56067 5.86842 8.27249 4.14952 9.67737 2.74487C11.0813 1.34068 12.7991 0.62886 14.7828 0.628174H14.7862C16.7711 0.628174 18.49 1.34023 19.8953 2.74487C21.3 4.14952 22.012 5.86842 22.012 7.85329Z" fill="#FFDB2D"/>
<path d="M27.4903 25.4685C27.4903 27.035 26.992 28.3032 26.0106 29.2373C25.0406 30.1604 23.7577 30.628 22.1979 30.628H7.75269C6.19286 30.628 4.90997 30.1604 3.94066 29.2373C2.95853 28.3025 2.46094 27.0345 2.46094 25.4685C2.46094 24.8661 2.48085 24.2701 2.52068 23.697C2.56119 23.111 2.64313 22.4734 2.76398 21.8007C2.88574 21.1225 3.0423 20.4814 3.22975 19.8955C3.4243 19.2889 3.68752 18.6906 4.01321 18.1175C4.3515 17.5226 4.74884 17.0045 5.19424 16.5778C5.66116 16.1313 6.23199 15.7726 6.89186 15.5112C7.54944 15.2512 8.27843 15.1194 9.05846 15.1194C9.36447 15.1194 9.66087 15.2446 10.2322 15.6167C10.5897 15.85 11.0017 16.1155 11.4565 16.4062C11.8492 16.6566 12.3811 16.8914 13.0387 17.1036C13.6166 17.2906 14.2033 17.3949 14.7828 17.413C14.8466 17.4153 14.9105 17.4164 14.9744 17.4164C15.618 17.4164 16.2689 17.3109 16.9107 17.1036C17.5683 16.8914 18.1009 16.6566 18.4934 16.4062C18.953 16.1125 19.365 15.8472 19.7173 15.6174C20.289 15.2446 20.5849 15.1194 20.8916 15.1194C21.671 15.1194 22.4 15.2512 23.058 15.5112C23.7179 15.7726 24.2887 16.132 24.7552 16.5778C25.2013 17.0045 25.5986 17.5226 25.9367 18.1175C26.2626 18.6911 26.5263 19.2889 26.7201 19.8948C26.9078 20.4814 27.0648 21.1225 27.1866 21.8011C27.3067 22.4745 27.3889 23.1122 27.4292 23.6965C27.4697 24.2678 27.4896 24.8638 27.4903 25.4685Z" fill="#6AA9FF"/>
<path d="M14.7863 15.0791H14.7828V0.628174H14.7863C16.7711 0.628174 18.49 1.34023 19.8954 2.74487C21.3 4.14952 22.0121 5.86842 22.0121 7.85329C22.0121 9.83884 21.3 11.5575 19.8954 12.9624C18.4907 14.367 16.7718 15.0791 14.7863 15.0791Z" fill="#FFCA00"/>
<path d="M27.4904 25.4685C27.4904 27.035 26.9921 28.3032 26.0106 29.2373C25.0406 30.1604 23.7578 30.628 22.1979 30.628H14.7828V17.413C14.8467 17.4153 14.9106 17.4164 14.9744 17.4164C15.618 17.4164 16.269 17.3109 16.9108 17.1036C17.5683 16.8914 18.1009 16.6566 18.4935 16.4062C18.9531 16.1125 19.3651 15.8472 19.7173 15.6174C20.289 15.2446 20.585 15.1194 20.8917 15.1194C21.671 15.1194 22.4 15.2512 23.0581 15.5112C23.7179 15.7726 24.2888 16.132 24.7552 16.5778C25.2013 17.0045 25.5986 17.5226 25.9367 18.1175C26.2626 18.6911 26.5263 19.2889 26.7202 19.8948C26.9079 20.4814 27.0649 21.1225 27.1866 21.8011C27.3068 22.4745 27.389 23.1122 27.4292 23.6965C27.4698 24.2678 27.4897 24.8638 27.4904 25.4685Z" fill="#2682FF"/>
</g>
<defs>
<clipPath id="clip0">
<rect width="30" height="30" fill="white" transform="translate(0 0.628174)"/>
</clipPath>
</defs>
</svg>
