<svg width="30" height="31" viewBox="0 0 30 31" fill="none" xmlns="http://www.w3.org/2000/svg">
<path d="M29.9999 14.1337C29.9999 13.9036 29.7531 13.7578 29.5516 13.8687L23.673 17.1053L23.1287 19.2526L23.673 21.4034L26.8364 23.6895L29.9999 24.8867V14.1337Z" fill="#454D58"/>
<path d="M23.673 22.4917L29.5516 25.7283C29.7531 25.8393 29.9999 25.6934 29.9999 25.4634V24.8864L23.673 21.4031L23.1287 21.9975L23.673 22.4917Z" fill="#3C434C"/>
<path d="M2.27637 15.7795L0.431895 14.9057C0.23127 14.8107 0 14.957 0 15.179V19.2417L1.13818 19.2469L2.27637 18.1633L2.8207 17.0615L2.27637 15.7795Z" fill="#A6AEC4"/>
<path d="M0.431895 20.1261L2.27637 19.2522L2.8207 18.7079L2.27637 18.1636L0 19.2419V19.8527C0 20.0748 0.23127 20.2211 0.431895 20.1261Z" fill="#959DB0"/>
<path d="M4.67906 18.1639L3.47772 18.7083L2.27637 18.1639V15.78H4.67906L5.22346 17.0621L4.67906 18.1639Z" fill="#454D58"/>
<path d="M2.27637 19.2523H4.67906L5.22346 18.7079L4.67906 18.1636H2.27637V19.2523Z" fill="#3C434C"/>
<path d="M17.7659 13.0774C20.5074 13.0774 23.035 10.4269 23.035 7.78056C22.7625 5.11091 20.5074 3.02808 17.7659 3.02808C15.0243 3.02808 12.7692 5.11097 12.4967 7.78056C12.4966 10.5457 15.0243 13.0774 17.7659 13.0774Z" fill="#454D58"/>
<path d="M8.89856 13.0776C11.2871 13.0776 12.5708 11.0903 12.5708 9.36525C12.3074 7.57311 10.7638 6.19727 8.89856 6.19727C7.03323 6.19727 5.4897 7.57311 5.22632 9.36525C5.22626 11.257 6.58077 13.0776 8.89856 13.0776Z" fill="#454D58"/>
<path d="M6.30991 27.9466H22.042C23.4066 27.9466 23.673 26.672 23.673 25.7713V15.2525C23.673 14.3518 22.9428 13.6216 22.042 13.6216H6.30991C5.40915 13.6216 4.67896 14.3518 4.67896 15.2525V25.7713C4.67896 26.672 5.09397 27.9466 6.30991 27.9466Z" fill="#A6AEC4"/>
<path d="M9.92737 22.3001H18.4247C19.0296 22.3001 19.0296 21.485 19.0296 21.1509V17.2908C19.0296 16.9568 18.7587 16.686 18.4247 16.686H9.92737C9.59333 16.686 9.32251 16.9569 9.32251 17.2908V21.1509C9.32251 21.485 9.32251 22.3001 9.92737 22.3001Z" fill="#BED8FB"/>
<path d="M17.7659 9.63961C19.1384 9.63961 19.5439 8.5783 19.5439 7.78055C19.3111 7.01947 18.6032 6.46582 17.7659 6.46582C16.9286 6.46582 16.2208 7.01941 15.988 7.78055C15.988 8.60437 16.4515 9.63961 17.7659 9.63961Z" fill="#A6AEC4"/>
<path d="M7.85132 9.36515C7.85132 9.82493 8.00888 10.5459 8.89839 10.5459C9.85283 10.5459 9.94552 9.76517 9.94552 9.36515C9.74865 8.98722 9.35402 8.72876 8.89839 8.72876C8.44282 8.72876 8.04819 8.98728 7.85132 9.36515Z" fill="#A6AEC4"/>
<path d="M22.042 27.4024H6.30991C5.40915 27.4024 4.67896 26.6722 4.67896 25.7715V26.8602C4.67896 27.761 5.40915 28.4912 6.30991 28.4912H22.042C22.9428 28.4912 23.673 27.761 23.673 26.8602V25.7715C23.673 26.6722 22.9428 27.4024 22.042 27.4024Z" fill="#959DB0"/>
<path d="M18.4246 21.7557H9.92732C9.59327 21.7557 9.32251 21.485 9.32251 21.1509V22.2396C9.32251 22.5737 9.59333 22.8445 9.92732 22.8445H18.4246C18.7587 22.8445 19.0295 22.5737 19.0295 22.2396V21.1509C19.0294 21.485 18.7586 21.7557 18.4246 21.7557Z" fill="#A3CAF7"/>
<path d="M8.89854 12.533C7.03321 12.533 5.48967 11.1571 5.22629 9.36499C5.20016 9.54271 5.18616 9.72435 5.18616 9.90933C5.18616 11.9596 6.84823 13.6217 8.89854 13.6217C10.9488 13.6217 12.6109 11.9596 12.6109 9.90933C12.6109 9.72435 12.5969 9.54271 12.5708 9.36499C12.3073 11.1571 10.7638 12.533 8.89854 12.533Z" fill="#3C434C"/>
<path d="M8.89837 10.0013C8.44281 10.0013 8.04818 9.74286 7.8513 9.36499C7.7664 9.528 7.71765 9.71286 7.71765 9.90933C7.71765 10.5614 8.24628 11.09 8.89837 11.09C9.55046 11.09 10.0791 10.5614 10.0791 9.90933C10.0791 9.7128 10.0304 9.52794 9.9455 9.36499C9.74857 9.74286 9.35394 10.0013 8.89837 10.0013Z" fill="#959DB0"/>
<path d="M17.7658 12.533C15.0242 12.533 12.7692 10.4501 12.4967 7.78052C12.4784 7.95946 12.469 8.14105 12.469 8.32485C12.469 11.2502 14.8405 13.6217 17.7659 13.6217C20.6913 13.6217 23.0627 11.2503 23.0627 8.32485C23.0627 8.14105 23.0534 7.95946 23.0351 7.78052C22.7624 10.4501 20.5073 12.533 17.7658 12.533Z" fill="#3C434C"/>
<path d="M17.7659 9.09524C16.9286 9.09524 16.2208 8.54165 15.988 7.78052C15.9353 7.95272 15.9069 8.13542 15.9069 8.32485C15.9069 9.35159 16.7392 10.1839 17.7659 10.1839C18.7927 10.1839 19.625 9.35159 19.625 8.32485C19.625 8.13542 19.5965 7.95267 19.5438 7.78052C19.311 8.54165 18.6032 9.09524 17.7659 9.09524Z" fill="#959DB0"/>
<path d="M16.6197 24.8928C16.3687 24.8928 16.1652 25.0963 16.1652 25.3473C16.1652 25.5984 16.3687 25.8018 16.6197 25.8018H17.7535C18.0045 25.8018 18.208 25.5984 18.208 25.3473C18.208 25.0963 18.0045 24.8928 17.7535 24.8928H16.6197Z" fill="#B3E59F"/>
<path d="M13.6076 24.8928C13.3566 24.8928 13.1531 25.0963 13.1531 25.3473C13.1531 25.5984 13.3566 25.8018 13.6076 25.8018H14.7414C14.9924 25.8018 15.1959 25.5984 15.1959 25.3473C15.1959 25.0963 14.9924 24.8928 14.7414 24.8928H13.6076Z" fill="#DF667C"/>
<path d="M10.5955 24.8931C10.3445 24.8931 10.141 25.0966 10.141 25.3476C10.141 25.5986 10.3445 25.8021 10.5955 25.8021H11.7293C11.9803 25.8021 12.1838 25.5986 12.1838 25.3476C12.1838 25.0965 11.9803 24.8931 11.7293 24.8931H10.5955Z" fill="#EACC73"/>
</svg>
