<svg width="30" height="31" viewBox="0 0 30 31" fill="none" xmlns="http://www.w3.org/2000/svg">
<g clip-path="url(#clip0)">
<path d="M27.2841 14.2552C27.0185 14.6077 26.7245 14.9464 26.4034 15.2675L23.1874 14.1556L21.7839 10.6486L22.731 9.7021L28.2101 4.22241C29.8024 7.42222 29.494 11.3277 27.2841 14.2552Z" fill="#E2E2E2"/>
<path d="M27.2841 14.2555C27.0185 14.608 26.7246 14.9467 26.4035 15.2678L23.1874 14.1559L21.7839 10.6489L22.731 9.70239L27.2841 14.2555Z" fill="#D8D8D8"/>
<path d="M24.1251 14.4805L23.1872 14.1561L21.7839 10.6484L28.2099 4.22241C28.5251 4.85651 28.7664 5.5181 28.9322 6.19438L23.1311 11.9955L24.1251 14.4805Z" fill="#D8D8D8"/>
<path d="M12.0219 19.2535L15.7479 21.0831L17.8013 19.0297C21.2195 20.3266 25.2298 19.5988 27.9823 16.8464L19.0485 7.9126L25.4744 1.48662C21.8887 -0.297614 17.4177 0.304437 14.429 3.29319C11.6765 6.04569 10.9487 10.0558 12.2457 13.4741L10.1923 15.5276L12.0219 19.2535Z" fill="#E2E2E2"/>
<path d="M12.9194 19.6942L12.0221 19.2534L10.1923 15.5276L12.2457 13.4741C10.9488 10.0559 11.6766 6.04568 14.429 3.29324C17.4177 0.304434 21.8887 -0.297617 25.4744 1.48662L24.8551 2.10596C21.7031 1.32502 18.2313 2.16672 15.7669 4.63105C13.0144 7.38355 12.2866 11.3937 13.5836 14.812L11.5301 16.8654L12.9194 19.6942Z" fill="#D8D8D8"/>
<path d="M14.7998 22.031L7.49582 29.335C6.72877 30.102 5.72295 30.4859 4.71801 30.4859C3.71219 30.4859 2.70678 30.1024 1.93979 29.3354C0.405745 27.8013 0.405745 25.3138 1.9402 23.7793L9.2442 16.4753L14.7998 22.031Z" fill="#9DC6FB"/>
<path d="M3.01733 30.1003C2.6275 29.9138 2.26252 29.6586 1.93979 29.3359C0.405745 27.8018 0.405745 25.3143 1.9402 23.7798L9.2442 16.4758L11.0854 18.317L3.78139 25.621C2.56967 26.8327 2.31485 28.6392 3.01733 30.1003Z" fill="#80B4FB"/>
<path d="M7.5354 18.1809L9.24131 16.475L14.7961 22.0298L13.0902 23.7357L7.5354 18.1809Z" fill="#80B4FB"/>
<path d="M21.094 12.6508C20.7531 12.3098 20.2004 12.3098 19.8594 12.6508C20.2004 12.3098 20.2004 11.7571 19.8594 11.4161C19.5184 11.0752 18.9657 11.0752 18.6248 11.4161C18.9657 11.0752 18.9657 10.5225 18.6248 10.1815C18.2838 9.84054 17.7311 9.84054 17.3901 10.1815L15.2575 12.3141C14.9166 12.655 14.9166 13.2078 15.2575 13.5487C15.5985 13.8897 16.1513 13.8897 16.4922 13.5487C16.1512 13.8897 16.1512 14.4424 16.4922 14.7833C16.8331 15.1243 17.3859 15.1243 17.7268 14.7833C17.3859 15.1243 17.3859 15.6771 17.7268 16.018C18.0678 16.3589 18.6206 16.3589 18.9615 16.018L21.094 13.8854C21.435 13.5445 21.435 12.9917 21.094 12.6508Z" fill="#D8D8D8"/>
<path d="M20.14 14.8399L18.9617 16.0182C18.6208 16.3591 18.0676 16.3587 17.7267 16.0178C17.3858 15.6769 17.3858 15.1242 17.7267 14.7833C17.3858 15.1242 16.8331 15.1242 16.4922 14.7833C16.1513 14.4424 16.1513 13.8897 16.4922 13.5488C16.1513 13.8897 15.5986 13.8897 15.2577 13.5488C14.9168 13.2079 14.9164 12.6548 15.2573 12.3139L16.4357 11.1355C16.0948 11.4764 16.0952 12.0295 16.4361 12.3704C16.777 12.7113 17.3297 12.7113 17.6706 12.3704C17.3297 12.7113 17.3297 13.264 17.6706 13.6049C18.0115 13.9458 18.5642 13.9458 18.9051 13.6049C18.5642 13.9458 18.5642 14.4986 18.9051 14.8395C19.246 15.1804 19.7991 15.1808 20.14 14.8399Z" fill="#C4C4C4"/>
<path d="M15.8644 21.1997L10.0757 15.4111C9.55202 14.8874 8.70293 14.8874 8.17928 15.4111C7.65557 15.9348 7.65557 16.7839 8.17928 17.3075L13.9679 23.0962C14.4916 23.6199 15.3407 23.6199 15.8644 23.0962C16.3881 22.5725 16.3881 21.7234 15.8644 21.1997Z" fill="#9DC6FB"/>
<path d="M10.1858 18.7592C10.1858 19.1018 10.3166 19.4453 10.5786 19.7072L8.17923 17.3079C7.91726 17.0459 7.78642 16.7024 7.78601 16.3594C7.78642 16.0164 7.9172 15.673 8.17923 15.411C8.70283 14.8874 9.55168 14.8874 10.0757 15.4114L12.475 17.8107C11.9514 17.2871 11.1022 17.2867 10.5786 17.8103C10.3166 18.0723 10.1858 18.4158 10.1858 18.7592Z" fill="#80B4FB"/>
</g>
<defs>
<clipPath id="clip0">
<rect width="30" height="30" fill="white" transform="translate(0 0.486084)"/>
</clipPath>
</defs>
</svg>
